<svg viewBox="0 0 1920 200" xmlns="http://www.w3.org/2000/svg" xmlns:xlink="http://www.w3.org/1999/xlink%22%3E<path fill="rgba(47, 73, 94, 1)" d="M 0 3 C 121.5 3 121.5 50 243 50 L 243 50 L 243 0 L 0 0 Z" stroke-width="0"></path> <path fill="rgba(47, 73, 94, 1)" d="M 242 50 C 367.5 50 367.5 5 493 5 L 493 5 L 493 0 L 242 0 Z" stroke-width="0"></path> <path fill="rgba(47, 73, 94, 1)" d="M 492 5 C 617 5 617 53 742 53 L 742 53 L 742 0 L 492 0 Z" stroke-width="0"></path><path fill="rgba(47, 73, 94, 1)" d="M 741 53 C 865.5 53 865.5 14 990 14 L 990 14 L 990 0 L 741 0 Z" stroke-width="0"></path><path fill="rgba(47, 73, 94, 1)" d="M 989 14 C 1129 14 1129 51 1269 51 L 1269 51 L 1269 0 L 989 0 Z" stroke-width="0"></path><path fill="rgba(47, 73, 94, 1)" d="M 1268 51 C 1405 51 1405 6 1542 6 L 1542 6 L 1542 0 L 1268 0 Z" stroke-width="0"></path><path fill="rgba(47, 73, 94, 1)" d="M 1541 6 C 1667 6 1667 50 1793 50 L 1793 50 L 1793 0 L 1541 0 Z" stroke-width="0"></path><path fill="rgba(47, 73, 94, 1)" d="M 1792 50 C 1856 50 1856 12 1920 12 L 1920 12 L 1920 0 L 1792 0 Z" stroke-width="0"></path></svg>